<svg width="231" height="210" viewBox="0 0 231 210" fill="none" xmlns="http://www.w3.org/2000/svg">
<path d="M40.5768 199.908C40.4281 200.238 40.0935 200.422 39.7589 200.422C39.6288 200.422 39.4987 200.403 39.3872 200.348C37.7329 199.597 36.1158 198.808 34.5358 197.984C34.0897 197.745 33.9224 197.214 34.1641 196.774C34.4057 196.334 34.9447 196.169 35.3909 196.407C36.915 197.214 38.5136 198.002 40.1307 198.735C40.5768 198.937 40.7813 199.468 40.5768 199.908ZM37.4169 61.3289C37.7329 60.944 37.6585 60.3757 37.2682 60.0824C36.8779 59.7708 36.3016 59.8441 36.0042 60.2291C34.8704 61.6222 33.7737 63.0153 32.7142 64.4084C32.4168 64.7934 32.4912 65.3616 32.8815 65.6549C33.0488 65.7832 33.2347 65.8382 33.4206 65.8382C33.6994 65.8382 33.9596 65.7099 34.1455 65.4899C35.205 64.1152 36.3016 62.722 37.4169 61.3472V61.3289ZM30.8183 193.786C29.3127 192.851 27.8443 191.861 26.4502 190.853C26.0413 190.56 25.4836 190.651 25.1862 191.036C24.8888 191.44 24.9818 191.989 25.3721 192.283C26.8034 193.328 28.309 194.336 29.8517 195.289C30.0004 195.381 30.1677 195.417 30.335 195.417C30.6324 195.417 30.9298 195.271 31.0971 194.996C31.3573 194.574 31.2458 194.024 30.8183 193.768V193.786ZM24.6286 77.1116C24.2197 76.8366 23.6435 76.9649 23.3832 77.3682C22.3795 78.8713 21.413 80.3561 20.4836 81.8408C20.2233 82.2624 20.3535 82.8124 20.781 83.069C20.9297 83.1607 21.097 83.1973 21.2643 83.1973C21.5617 83.1973 21.8591 83.0507 22.0263 82.7757C22.9557 81.3093 23.9037 79.8245 24.8888 78.3397C25.1677 77.9364 25.0561 77.3682 24.6286 77.1116ZM18.5133 184.034C18.1601 183.686 17.5839 183.667 17.2307 184.034C16.8776 184.382 16.859 184.951 17.2307 185.299C18.4761 186.564 19.7958 187.792 21.1713 188.965C21.3386 189.112 21.5617 189.185 21.7661 189.185C22.0263 189.185 22.268 189.075 22.4539 188.873C22.7884 188.507 22.7327 187.938 22.3609 187.608C21.0226 186.472 19.7401 185.262 18.5319 184.034H18.5133ZM49.9821 44.1348C48.7554 45.4546 47.5658 46.7561 46.3761 48.0575C46.0416 48.4242 46.0787 48.9924 46.4505 49.3224C46.6178 49.469 46.8408 49.5423 47.0453 49.5423C47.2869 49.5423 47.5472 49.4323 47.7144 49.249C48.8855 47.9476 50.0751 46.6461 51.2833 45.3446C51.6179 44.978 51.5993 44.4098 51.2275 44.0798C50.8558 43.7498 50.2795 43.7682 49.945 44.1348H49.9821ZM60.2611 205.188C58.5139 204.821 56.7852 204.399 55.0937 203.959C54.6105 203.813 54.1086 204.124 53.9785 204.583C53.8484 205.059 54.1458 205.554 54.629 205.664C56.3391 206.122 58.1049 206.526 59.8708 206.911C59.9265 206.911 60.0009 206.929 60.0566 206.929C60.4656 206.929 60.8559 206.636 60.9488 206.232C61.0604 205.756 60.7444 205.279 60.2611 205.169V205.188ZM44.127 51.962C43.7553 51.6503 43.1791 51.687 42.8445 52.0536C41.6735 53.4101 40.521 54.7665 39.3872 56.1047C39.0712 56.4896 39.127 57.0395 39.4987 57.3695C39.666 57.4978 39.8705 57.5711 40.0749 57.5711C40.3352 57.5711 40.5954 57.4611 40.7813 57.2412C41.8965 55.903 43.049 54.5649 44.22 53.2084C44.536 52.8418 44.4988 52.2736 44.127 51.9436V51.962ZM66.2277 28.9937C65.8746 28.6454 65.2983 28.6271 64.9452 28.9754C63.6441 30.2219 62.3801 31.45 61.1161 32.6782C60.763 33.0264 60.763 33.5947 61.1161 33.943C61.2834 34.1263 61.5251 34.1996 61.7481 34.1996C61.9712 34.1996 62.2128 34.108 62.3801 33.943C63.6255 32.7148 64.8894 31.4867 66.1906 30.2585C66.5437 29.9102 66.5623 29.342 66.2091 28.9937H66.2277ZM50.0193 202.493C48.3092 201.943 46.6364 201.356 45.0192 200.751C44.5546 200.568 44.0341 200.806 43.8482 201.265C43.6623 201.723 43.904 202.236 44.3687 202.42C46.0044 203.043 47.7145 203.648 49.4617 204.198C49.5546 204.234 49.6476 204.234 49.7405 204.234C50.1308 204.234 50.484 203.996 50.5955 203.611C50.7442 203.134 50.484 202.64 50.0193 202.493ZM54.9636 41.4952C56.1718 40.2304 57.3986 38.9656 58.6626 37.7007C59.0157 37.3525 58.9971 36.7842 58.6626 36.4359C58.3094 36.0877 57.7332 36.106 57.38 36.4359C56.1161 37.7191 54.8707 38.9839 53.6625 40.2487C53.3279 40.6153 53.3279 41.1652 53.6997 41.5135C53.867 41.6785 54.09 41.7518 54.3131 41.7518C54.5547 41.7518 54.7963 41.6602 54.9636 41.4769V41.4952ZM0.910794 142.424C1.41266 142.424 1.803 142.039 1.82159 141.544C1.82159 139.821 1.91453 138.079 2.04464 136.338C2.08181 135.843 1.71006 135.421 1.2082 135.385C0.724918 135.366 0.278814 135.715 0.241639 136.209C0.0929382 137.988 0.0185876 139.784 0 141.544C0 142.039 0.39034 142.442 0.892206 142.442L0.910794 142.424ZM2.52792 151.919C2.26769 150.232 2.08181 148.491 1.97029 146.75C1.93311 146.255 1.5056 145.888 1.00373 145.925C0.501866 145.961 0.130113 146.383 0.167289 146.878C0.278814 148.656 0.483278 150.452 0.743505 152.194C0.817856 152.634 1.18961 152.964 1.63571 152.964C1.67289 152.964 1.72865 152.964 1.76582 152.964C2.26769 152.89 2.60227 152.432 2.52792 151.955V151.919ZM1.61712 131.902C1.61712 131.902 1.71006 131.902 1.74724 131.902C2.19334 131.902 2.58368 131.572 2.63944 131.132C2.88108 129.445 3.17848 127.704 3.53165 125.981C3.62459 125.504 3.3086 125.028 2.82532 124.936C2.34204 124.844 1.85876 125.156 1.76582 125.633C1.41266 127.392 1.09667 129.152 0.855031 130.875C0.78068 131.37 1.13385 131.81 1.61712 131.883V131.902ZM3.62459 121.545C3.62459 121.545 3.77329 121.582 3.84764 121.582C4.25657 121.582 4.60973 121.307 4.72126 120.922C5.14877 119.272 5.65064 117.567 6.18968 115.899C6.33838 115.423 6.07816 114.928 5.59488 114.781C5.1116 114.634 4.60973 114.891 4.46103 115.368C3.92199 117.072 3.42012 118.795 2.97402 120.482C2.84391 120.958 3.14131 121.453 3.62459 121.563V121.545ZM27.1379 74.362C27.4168 74.362 27.7142 74.2336 27.8814 73.977C28.8852 72.5656 29.9075 71.1358 30.967 69.6877C31.2644 69.2844 31.1715 68.7345 30.7625 68.4412C30.3536 68.1479 29.796 68.2395 29.4986 68.6428C28.4205 70.0909 27.3982 71.5207 26.3944 72.9688C26.1156 73.3721 26.2086 73.922 26.6175 74.2153C26.7662 74.3253 26.9521 74.3803 27.1379 74.3803V74.362ZM11.8775 175.987C11.5987 175.584 11.0411 175.474 10.6135 175.749C10.2046 176.024 10.0931 176.573 10.3719 176.995C11.3756 178.461 12.4723 179.91 13.6061 181.284C13.792 181.504 14.0522 181.614 14.3125 181.614C14.5169 181.614 14.7214 181.541 14.8887 181.413C15.279 181.101 15.3348 180.533 15.0188 180.166C13.9035 178.828 12.8441 177.417 11.8775 176.005V175.987ZM10.7437 101.675C10.8738 101.73 10.9853 101.748 11.1154 101.748C11.4686 101.748 11.7846 101.546 11.9333 101.235C12.6582 99.6765 13.4203 98.1001 14.2195 96.5053C14.4426 96.0654 14.2567 95.5338 13.8106 95.3139C13.3645 95.0939 12.8255 95.2772 12.6024 95.7171C11.7846 97.3302 11.0039 98.925 10.279 100.501C10.0745 100.941 10.279 101.473 10.7251 101.675H10.7437ZM3.53165 157.033C3.42012 156.556 2.93685 156.245 2.45357 156.373C1.97029 156.483 1.67289 156.96 1.78441 157.436C2.19334 159.178 2.69521 160.919 3.25284 162.587C3.38295 162.954 3.73611 163.192 4.10787 163.192C4.2008 163.192 4.29374 163.192 4.38668 163.155C4.85137 163.009 5.1116 162.496 4.9629 162.037C4.42386 160.406 3.94058 158.719 3.53165 157.033ZM9.33099 104.882C8.8663 104.699 8.34585 104.919 8.15997 105.359C7.47223 107.027 6.82166 108.677 6.20827 110.308C6.04098 110.767 6.28262 111.28 6.74731 111.445C6.84025 111.481 6.95177 111.5 7.0633 111.5C7.43505 111.5 7.78822 111.28 7.91833 110.913C8.51313 109.3 9.14511 107.669 9.83286 106.019C10.0187 105.561 9.79568 105.047 9.34958 104.864L9.33099 104.882ZM6.82166 166.895C6.6172 166.437 6.09674 166.235 5.63205 166.437C5.16736 166.638 4.9629 167.151 5.16736 167.61C5.89228 169.241 6.69155 170.854 7.56517 172.431C7.73245 172.724 8.02986 172.889 8.36443 172.889C8.51313 172.889 8.66184 172.852 8.79195 172.779C9.23805 172.541 9.38675 172.009 9.14511 171.569C8.30867 170.048 7.52799 168.49 6.82166 166.913V166.895ZM18.978 86.0569C18.5505 85.8003 17.9928 85.9469 17.7326 86.3868C16.8218 87.9449 15.9482 89.4847 15.0932 91.0061C14.8515 91.4461 15.0188 91.9777 15.4649 92.216C15.595 92.2893 15.7437 92.326 15.8924 92.326C16.2084 92.326 16.5244 92.161 16.6917 91.8677C17.5281 90.3462 18.4018 88.8248 19.294 87.285C19.5542 86.8634 19.4055 86.3135 18.9594 86.0752L18.978 86.0569ZM193.181 178.022C191.62 178.883 190.059 179.708 188.497 180.533C188.051 180.771 187.884 181.303 188.125 181.743C188.293 182.036 188.609 182.219 188.925 182.219C189.073 182.219 189.222 182.183 189.352 182.109C190.914 181.284 192.493 180.441 194.073 179.58C194.501 179.341 194.668 178.791 194.427 178.37C194.185 177.948 193.627 177.783 193.2 178.022H193.181ZM174.148 187.535C172.512 188.268 170.895 188.983 169.278 189.68C168.813 189.881 168.608 190.395 168.813 190.853C168.962 191.183 169.296 191.385 169.649 191.385C169.761 191.385 169.891 191.366 170.002 191.311C171.638 190.615 173.274 189.881 174.91 189.148C175.356 188.947 175.56 188.415 175.356 187.975C175.151 187.535 174.612 187.333 174.166 187.535H174.148ZM183.757 182.952C182.159 183.759 180.56 184.529 178.98 185.28C178.534 185.5 178.348 186.032 178.553 186.472C178.701 186.784 179.036 186.967 179.371 186.967C179.501 186.967 179.631 186.93 179.761 186.875C181.36 186.105 182.958 185.335 184.575 184.529C185.021 184.309 185.189 183.777 184.966 183.337C184.742 182.897 184.203 182.714 183.757 182.952ZM144.314 198.882C142.604 199.413 140.894 199.908 139.203 200.385C138.719 200.513 138.441 201.008 138.589 201.485C138.701 201.87 139.073 202.126 139.463 202.126C139.537 202.126 139.63 202.126 139.705 202.09C141.415 201.613 143.125 201.1 144.853 200.568C145.337 200.422 145.597 199.927 145.448 199.45C145.3 198.973 144.798 198.717 144.314 198.863V198.882ZM164.37 191.733C162.716 192.411 161.062 193.053 159.408 193.676C158.943 193.859 158.701 194.372 158.887 194.831C159.017 195.179 159.37 195.399 159.724 195.399C159.835 195.399 159.947 195.381 160.058 195.344C161.712 194.721 163.385 194.061 165.04 193.383C165.504 193.199 165.727 192.668 165.523 192.228C165.337 191.77 164.798 191.55 164.352 191.751L164.37 191.733ZM154.426 195.527C152.735 196.132 151.062 196.7 149.389 197.269C148.924 197.434 148.664 197.929 148.813 198.405C148.943 198.772 149.296 199.01 149.668 199.01C149.761 199.01 149.853 199.01 149.965 198.955C151.656 198.387 153.348 197.819 155.039 197.214C155.504 197.049 155.746 196.535 155.578 196.077C155.411 195.619 154.891 195.381 154.426 195.546V195.527ZM202.419 172.742C200.877 173.659 199.352 174.539 197.828 175.419C197.401 175.657 197.252 176.207 197.494 176.628C197.661 176.922 197.958 177.068 198.274 177.068C198.423 177.068 198.59 177.032 198.72 176.94C200.263 176.06 201.806 175.162 203.349 174.245C203.776 173.989 203.906 173.439 203.665 173.017C203.404 172.596 202.847 172.467 202.419 172.706V172.742ZM220.301 161.249C218.832 162.257 217.364 163.247 215.895 164.237C215.486 164.512 215.375 165.062 215.654 165.483C215.821 165.74 216.118 165.868 216.397 165.868C216.564 165.868 216.75 165.813 216.899 165.722C218.367 164.732 219.854 163.742 221.323 162.715C221.732 162.441 221.825 161.872 221.546 161.469C221.267 161.066 220.691 160.974 220.282 161.249H220.301ZM230.208 155.255C229.91 154.87 229.334 154.778 228.944 155.072C227.513 156.135 226.081 157.161 224.65 158.188C224.241 158.481 224.148 159.031 224.446 159.434C224.632 159.673 224.892 159.801 225.171 159.801C225.356 159.801 225.542 159.746 225.71 159.636C227.141 158.609 228.591 157.565 230.022 156.501C230.412 156.208 230.505 155.64 230.208 155.255ZM211.453 167.151C209.947 168.123 208.46 169.058 206.955 169.993C206.527 170.249 206.397 170.799 206.676 171.221C206.843 171.496 207.141 171.642 207.438 171.642C207.605 171.642 207.773 171.606 207.921 171.514C209.427 170.579 210.932 169.626 212.438 168.655C212.866 168.38 212.977 167.83 212.698 167.426C212.419 167.023 211.862 166.895 211.453 167.17V167.151ZM81.3581 207.809C79.5736 207.735 77.8078 207.625 76.042 207.479C75.5215 207.406 75.1126 207.809 75.0754 208.285C75.0383 208.78 75.41 209.202 75.8933 209.239C77.6591 209.385 79.4621 209.495 81.2651 209.569H81.3023C81.7856 209.569 82.1759 209.202 82.2131 208.725C82.2317 208.23 81.8413 207.809 81.3581 207.79V207.809ZM90.0199 9.08667C90.4102 8.77505 90.4474 8.2068 90.1314 7.82186C89.8154 7.45525 89.2392 7.40026 88.8489 7.71188C87.4734 8.8667 86.1165 10.0032 84.7782 11.1397C84.4064 11.4697 84.3507 12.0196 84.6852 12.4045C84.8711 12.6061 85.1128 12.7161 85.373 12.7161C85.5774 12.7161 85.8005 12.6428 85.9678 12.4962C87.3061 11.3597 88.663 10.2232 90.0385 9.06834L90.0199 9.08667ZM80.7261 14.6225C79.3692 15.7957 78.0309 16.9688 76.7297 18.142C76.358 18.4719 76.3208 19.0402 76.6554 19.4068C76.8413 19.6084 77.0829 19.7001 77.3245 19.7001C77.5476 19.7001 77.7521 19.6268 77.9379 19.4801C79.2391 18.307 80.5774 17.1521 81.9343 15.979C82.306 15.649 82.3432 15.0991 82.0086 14.7142C81.674 14.3476 81.0978 14.3109 80.7261 14.6408V14.6225ZM134.054 201.76C132.325 202.2 130.597 202.621 128.887 203.024C128.403 203.134 128.106 203.611 128.217 204.088C128.31 204.491 128.682 204.784 129.091 204.784C129.165 204.784 129.221 204.784 129.296 204.766C131.024 204.363 132.771 203.941 134.519 203.501C135.002 203.373 135.299 202.896 135.169 202.42C135.039 201.943 134.537 201.65 134.073 201.778L134.054 201.76ZM91.9902 207.882C90.6147 207.919 89.2578 207.937 87.9195 207.937H86.6741C86.2094 207.864 85.7633 208.322 85.7633 208.817C85.7633 209.312 86.1537 209.715 86.6555 209.715H87.9195C89.2764 209.715 90.6519 209.715 92.0459 209.66C92.5478 209.66 92.9381 209.239 92.9196 208.744C92.9196 208.249 92.5106 207.882 91.9902 207.882ZM70.7631 206.929C68.9787 206.709 67.2315 206.452 65.5028 206.177C65.0195 206.104 64.5362 206.416 64.4619 206.911C64.369 207.405 64.7035 207.864 65.2054 207.937C66.9526 208.23 68.7371 208.487 70.5401 208.707C70.5772 208.707 70.6144 208.707 70.6516 208.707C71.0977 208.707 71.488 208.377 71.5438 207.919C71.5995 207.424 71.2464 206.984 70.7631 206.929ZM72.7706 21.6981C71.4508 22.9079 70.1311 24.1178 68.8486 25.3093C68.4954 25.6575 68.4768 26.2075 68.8114 26.5741C68.9973 26.7574 69.2203 26.849 69.462 26.849C69.685 26.849 69.9081 26.7757 70.0754 26.6107C71.3579 25.4192 72.659 24.2094 73.9788 23.0179C74.3505 22.688 74.3691 22.1197 74.0345 21.7531C73.7 21.3865 73.1237 21.3682 72.752 21.6981H72.7706ZM113.199 205.994C111.433 206.251 109.667 206.489 107.92 206.709C107.418 206.764 107.065 207.204 107.139 207.699C107.195 208.157 107.585 208.487 108.031 208.487C108.068 208.487 108.106 208.487 108.143 208.487C109.909 208.285 111.674 208.047 113.477 207.772C113.979 207.699 114.314 207.241 114.24 206.764C114.165 206.269 113.719 205.939 113.217 206.012L113.199 205.994ZM123.682 204.143C121.935 204.491 120.188 204.839 118.44 205.133C117.957 205.224 117.623 205.682 117.715 206.159C117.79 206.599 118.18 206.892 118.608 206.892C118.663 206.892 118.719 206.892 118.775 206.892C120.522 206.581 122.288 206.251 124.054 205.884C124.537 205.792 124.853 205.316 124.76 204.821C124.667 204.344 124.184 204.033 123.701 204.124L123.682 204.143ZM98.3843 1.09453C98.0683 0.70959 97.4921 0.654592 97.1204 0.966212C95.7263 2.08438 94.3322 3.20255 92.9753 4.32072C92.585 4.63234 92.5292 5.20058 92.8638 5.58553C93.0497 5.80549 93.3099 5.91548 93.5701 5.91548C93.7746 5.91548 93.9791 5.84215 94.1463 5.71384C95.5032 4.59567 96.8787 3.49584 98.2728 2.37767C98.6631 2.06605 98.7189 1.4978 98.4029 1.13119L98.3843 1.09453ZM102.604 207.259C100.819 207.424 99.0535 207.552 97.2877 207.644C96.7858 207.68 96.414 208.102 96.4326 208.579C96.4698 209.055 96.8601 209.422 97.3248 209.422H97.3806C99.1464 209.312 100.949 209.184 102.752 209.019C103.254 208.982 103.607 208.542 103.57 208.047C103.533 207.552 103.087 207.222 102.585 207.241L102.604 207.259Z" fill="#F85E9F"/>
</svg>
